<svg width="272" height="51" viewBox="0 0 272 51" fill="none" xmlns="http://www.w3.org/2000/svg">
<path d="M3.53667 23.1893C3.53667 23.5091 3.70681 23.7927 4.05162 24.04C4.39417 24.2872 4.83426 24.505 5.36963 24.691C5.905 24.8793 6.49482 25.0835 7.14361 25.3103C7.79014 25.5372 8.44347 25.764 9.10588 25.9954C9.76602 26.2268 10.3649 26.5194 10.9003 26.8756C11.4356 27.2318 11.8735 27.6968 12.2115 28.2685C12.5495 28.8401 12.7174 29.4912 12.7174 30.2194C12.7174 30.5007 12.706 30.7502 12.6833 30.9725C12.6606 31.1926 12.6017 31.4852 12.5064 31.8459C12.4111 32.2066 12.275 32.5242 12.0981 32.7964C11.9211 33.0687 11.6602 33.3613 11.3131 33.6698C10.9661 33.9806 10.5577 34.2369 10.0859 34.4434C9.61403 34.6498 9.00606 34.82 8.26199 34.9515C7.51792 35.0831 6.68083 35.1511 5.75074 35.1511C4.74805 35.1511 3.68866 34.9697 2.57708 34.609C1.46324 34.2483 0.603472 33.8014 4.57764e-05 33.2706L1.32713 30.7048C2.04852 31.1767 2.84931 31.5487 3.72722 31.821C4.60514 32.0932 5.27889 32.2293 5.75074 32.2293C7.04833 32.2293 7.99658 32.0591 8.5932 31.7211C9.18982 31.3831 9.48926 30.9839 9.48926 30.5279C9.48926 30.1014 9.32366 29.7249 8.99019 29.4005C8.65898 29.0761 8.21889 28.8152 7.67217 28.6133C7.12546 28.4136 6.53338 28.1959 5.89593 27.9622C5.25847 27.7286 4.61421 27.4926 3.96315 27.2544C3.31208 27.0162 2.71773 26.7349 2.18009 26.4105C1.64245 26.0861 1.2069 25.6574 0.875694 25.1266C0.54449 24.5957 0.378888 23.9832 0.378888 23.2913C0.378888 22.7605 0.46736 22.2546 0.644304 21.776C0.821249 21.2973 1.11162 20.8255 1.51769 20.3604C1.92375 19.8954 2.53852 19.5233 3.36426 19.2443C4.19 18.9653 5.17907 18.8246 6.32921 18.8246C7.3319 18.8246 8.37542 19.0242 9.45977 19.4212C10.5441 19.8182 11.447 20.3513 12.1706 21.0137L10.07 23.1824C9.53917 22.7832 8.91986 22.4679 8.21208 22.2319C7.5043 21.996 6.87819 21.878 6.33148 21.878C5.46037 21.878 4.77981 21.9915 4.28528 22.2161C3.78393 22.4429 3.53667 22.7673 3.53667 23.1893Z" fill="#3AAA35"/>
<path d="M22.1407 32.1659C24.2209 32.1659 26.1514 32.0252 27.9368 31.7462V34.6884C25.666 35.0128 23.8738 35.1762 22.5604 35.1762C21.5713 35.1762 20.7025 35.1058 19.9493 34.9652C19.1962 34.8245 18.57 34.6476 18.0687 34.4344C17.5674 34.2211 17.1477 33.9262 16.8074 33.5496C16.4671 33.1731 16.2108 32.8124 16.0338 32.4653C15.8569 32.1182 15.7276 31.6826 15.6459 31.1609C15.5643 30.6369 15.5144 30.1741 15.4917 29.768C15.469 29.3619 15.4576 28.8584 15.4576 28.2527C15.4576 27.9872 15.4576 27.7876 15.4576 27.656V19.0946H27.7122V22.1912H18.5995V25.3104H26.3851V28.4069L18.5995 28.4296C18.5995 29.0648 18.6131 29.5548 18.6426 29.8996C18.6721 30.2467 18.7493 30.5892 18.874 30.9272C18.9988 31.2675 19.1916 31.5125 19.4502 31.669C19.7088 31.8233 20.0514 31.9458 20.4779 32.0343C20.9089 32.1227 21.4601 32.1659 22.1407 32.1659Z" fill="#3AAA35"/>
<path d="M40.3455 19.0924H43.3104V34.9743H40.5451L32.6484 24.4007V34.9743H29.6403V19.0924H32.3013L40.3477 29.7544V19.0924H40.3455ZM34.5925 17.9649H32.6461V17.8764C32.941 15.9596 33.8099 15 35.2572 15C35.6837 15 36.1464 15.1542 36.6387 15.465C37.1332 15.7758 37.4758 15.9301 37.6663 15.9301C37.9318 15.9301 38.1427 15.8597 38.297 15.7191C38.4512 15.5785 38.5374 15.4423 38.5511 15.3108L38.5737 15.1111V15.0453H40.477V15.2677C40.477 15.5036 40.4475 15.7531 40.3886 16.0208C40.3296 16.2862 40.2184 16.5925 40.0574 16.9396C39.894 17.2866 39.6218 17.5702 39.2384 17.7902C38.855 18.0103 38.39 18.1215 37.8456 18.1215C37.3578 18.1215 36.9018 17.9627 36.4731 17.6451C36.0444 17.3275 35.7063 17.1687 35.4545 17.1687C35.2027 17.1687 35.0076 17.2345 34.8693 17.3683C34.7286 17.4999 34.6515 17.6337 34.6379 17.7653L34.5925 17.9649Z" fill="#3AAA35"/>
<path d="M58.5049 34.9765L56.7264 30.5076H50.9643L49.1926 34.9765H45.8534L52.1803 19.0946H55.4968L61.8237 34.9765H58.5049ZM52.1213 27.588H55.5626L53.8363 23.2574L52.1213 27.588Z" fill="#3AAA35"/>
<path d="M66.9782 23.1893C66.9782 23.5091 67.1483 23.7927 67.4932 24.04C67.8357 24.2872 68.2758 24.505 68.8112 24.691C69.3465 24.8793 69.9363 25.0835 70.5851 25.3103C71.2317 25.5372 71.885 25.764 72.5474 25.9954C73.2076 26.2268 73.8064 26.5194 74.3418 26.8756C74.8772 27.2318 75.315 27.6968 75.653 28.2685C75.991 28.8401 76.1589 29.4912 76.1589 30.2194C76.1589 30.5007 76.1475 30.7502 76.1249 30.9725C76.1022 31.1926 76.0432 31.4852 75.9479 31.8459C75.8526 32.2066 75.7165 32.5242 75.5396 32.7964C75.3626 33.0687 75.1018 33.3613 74.7547 33.6698C74.4076 33.9806 73.9993 34.2369 73.5274 34.4434C73.0556 34.6498 72.4476 34.82 71.7035 34.9515C70.9594 35.0831 70.1224 35.1511 69.1923 35.1511C68.1896 35.1511 67.1302 34.9697 66.0186 34.609C64.9048 34.2483 64.045 33.8014 63.4416 33.2706L64.7687 30.7048C65.49 31.1767 66.2908 31.5487 67.1688 31.821C68.0467 32.0932 68.7204 32.2293 69.1923 32.2293C70.4899 32.2293 71.4381 32.0591 72.0347 31.7211C72.6313 31.3831 72.9308 30.9839 72.9308 30.5279C72.9308 30.1014 72.7652 29.7249 72.4317 29.4005C72.1005 29.0761 71.6604 28.8152 71.1137 28.6133C70.567 28.4136 69.9749 28.1959 69.3375 27.9622C68.7 27.7286 68.0557 27.4926 67.4047 27.2544C66.7536 27.0162 66.1593 26.7349 65.6216 26.4105C65.084 26.0861 64.6484 25.6574 64.3172 25.1266C63.986 24.5957 63.8204 23.9832 63.8204 23.2913C63.8204 22.7605 63.9089 22.2546 64.0858 21.776C64.2628 21.2973 64.5531 20.8255 64.9592 20.3604C65.3653 19.8954 65.9801 19.5233 66.8058 19.2443C67.6315 18.9653 68.6206 18.8246 69.7707 18.8246C70.7734 18.8246 71.8169 19.0242 72.9013 19.4212C73.9857 19.8182 74.8885 20.3513 75.6122 21.0137L73.5115 23.1824C72.9807 22.7832 72.3614 22.4679 71.6536 22.2319C70.9458 21.996 70.3197 21.878 69.773 21.878C68.9019 21.878 68.2213 21.9915 67.7268 22.2161C67.2255 22.4429 66.9782 22.7673 66.9782 23.1893Z" fill="#3AAA35"/>
<path d="M94.3207 31.4808L95.6705 34.3777C93.8852 34.8949 92.0567 35.1512 90.1852 35.1512C89.0487 35.1512 88.0437 34.9562 87.1658 34.566C86.2879 34.1758 85.6096 33.6971 85.1309 33.1277C84.6523 32.5606 84.2598 31.905 83.9581 31.1587C83.6564 30.4146 83.4613 29.7477 83.3728 29.1578C83.2844 28.568 83.2413 27.9941 83.2413 27.4315C83.2413 26.7396 83.2889 26.0409 83.3842 25.3422C83.4795 24.6412 83.6632 23.8903 83.9377 23.085C84.2099 22.282 84.5615 21.5742 84.988 20.9617C85.4145 20.3492 86.0066 19.841 86.7575 19.435C87.5106 19.0289 88.3636 18.827 89.3232 18.827C90.0446 18.827 91.0223 18.9677 92.2541 19.2467C93.4859 19.528 94.6179 19.9023 95.6501 20.3741L94.146 22.8967C92.2722 22.2184 90.7614 21.8782 89.6113 21.8782C87.4721 21.8782 86.4036 23.6113 86.4036 27.0776C86.4036 28.6996 86.7212 29.945 87.3541 30.8161C87.987 31.6872 88.8808 32.1205 90.0309 32.1205C91.2083 32.1228 92.6397 31.9095 94.3207 31.4808Z" fill="#3AAA35"/>
<path d="M108.388 19.0924H111.507V34.9743H108.388V28.4931H101.11V34.9743H97.9252V19.0924H101.11V25.3739H108.388V19.0924Z" fill="#3AAA35"/>
<path d="M126.307 34.9765L124.528 30.5076H118.766L116.995 34.9765H113.655L119.982 19.0946H123.301L129.628 34.9765H126.307ZM119.921 27.588H123.362L121.636 23.2574L119.921 27.588Z" fill="#3AAA35"/>
<path d="M138.339 19.0924C139.548 19.0924 140.564 19.2149 141.392 19.4576C142.218 19.7004 142.849 20.0588 143.284 20.5306C143.72 21.0025 144.026 21.5265 144.203 22.1005C144.38 22.6767 144.468 23.3549 144.468 24.1353C144.468 25.5962 143.949 26.7305 142.908 27.5426C141.866 28.3548 140.344 28.7586 138.339 28.7586H134.909V34.9743H131.767V19.0924H138.339ZM138.318 25.8844C139.262 25.8844 139.999 25.7188 140.53 25.3875C141.061 25.0563 141.326 24.6253 141.326 24.0945C141.326 23.8155 141.297 23.5705 141.238 23.364C141.179 23.1576 141.056 22.9398 140.873 22.7107C140.689 22.4816 140.383 22.3092 139.954 22.1912C139.525 22.0732 138.988 22.0143 138.339 22.0143H134.909V25.8844H138.318Z" fill="#3AAA35"/>
<path d="M150.308 34.9765H147.123V19.0946H150.308V34.9765Z" fill="#3AAA35"/>
<path d="M164.509 19.0924H167.474V34.9743H164.731L156.812 24.4007V34.9743H153.826V19.0924H156.567L164.511 29.6614V19.0924H164.509Z" fill="#3AAA35"/>
<path d="M182.271 34.9765L180.492 30.5076H174.73L172.959 34.9765H169.619L175.946 19.0946H179.265L185.592 34.9765H182.271ZM175.885 27.588H179.326L177.6 23.2574L175.885 27.588Z" fill="#3AAA35"/>
<path d="M190.744 23.1893C190.744 23.5091 190.916 23.7927 191.259 24.04C191.601 24.2872 192.041 24.505 192.577 24.691C193.112 24.8793 193.702 25.0835 194.351 25.3103C194.997 25.5372 195.651 25.764 196.311 25.9954C196.971 26.2268 197.57 26.5194 198.105 26.8756C198.64 27.2318 199.078 27.6968 199.416 28.2685C199.754 28.8401 199.922 29.4912 199.922 30.2194C199.922 30.5007 199.911 30.7502 199.888 30.9725C199.865 31.1926 199.806 31.4852 199.711 31.8459C199.616 32.2066 199.48 32.5242 199.303 32.7964C199.126 33.0687 198.865 33.3613 198.518 33.6698C198.171 33.9783 197.763 34.2369 197.291 34.4434C196.819 34.6498 196.211 34.82 195.467 34.9515C194.723 35.0831 193.886 35.1511 192.956 35.1511C191.953 35.1511 190.893 34.9697 189.782 34.609C188.668 34.2483 187.808 33.8014 187.205 33.2706L188.532 30.7048C189.253 31.1767 190.054 31.5487 190.932 31.821C191.81 32.0932 192.484 32.2293 192.956 32.2293C194.253 32.2293 195.201 32.0591 195.798 31.7211C196.395 31.3831 196.694 30.9839 196.694 30.5279C196.694 30.1014 196.528 29.7249 196.195 29.4005C195.864 29.0761 195.424 28.8152 194.877 28.6133C194.33 28.4136 193.738 28.1959 193.101 27.9622C192.463 27.7286 191.819 27.4926 191.168 27.2544C190.517 27.0162 189.923 26.7349 189.383 26.4105C188.845 26.0861 188.409 25.6574 188.078 25.1266C187.747 24.5957 187.581 23.9832 187.581 23.2913C187.581 22.7605 187.67 22.2546 187.847 21.776C188.024 21.2973 188.314 20.8255 188.72 20.3604C189.126 19.8954 189.741 19.5233 190.567 19.2443C191.393 18.9653 192.382 18.8246 193.532 18.8246C194.534 18.8246 195.578 19.0242 196.662 19.4212C197.747 19.8182 198.65 20.3513 199.373 21.0137L197.273 23.1824C196.742 22.7832 196.122 22.4679 195.415 22.2319C194.707 21.996 194.081 21.878 193.534 21.878C192.663 21.878 191.982 21.9915 191.488 22.2161C190.989 22.4429 190.744 22.7673 190.744 23.1893Z" fill="#3AAA35"/>
<path d="M246.5 51C260.583 51 272 39.5833 272 25.5C272 11.4167 260.583 0 246.5 0C232.417 0 221 11.4167 221 25.5C221 39.5833 232.417 51 246.5 51Z" fill="#29235C"/>
<path d="M242.925 28.4452C243.192 28.8278 243.776 28.7729 243.967 28.3465C244.547 27.0532 244.625 25.5468 243.836 24.4171L237.992 16.0278C237.802 15.7556 237.428 15.689 237.155 15.8789C236.04 16.6575 235.766 18.2025 236.545 19.3176L242.925 28.4452Z" fill="#95C11F"/>
<path d="M241.006 33.0025C241.273 33.3851 241.857 33.3302 242.048 32.9038C242.628 31.6106 242.706 30.1041 241.917 28.9744L236.073 20.5846C235.883 20.3124 235.509 20.2458 235.236 20.4357C234.121 21.2143 233.847 22.7593 234.626 23.8744L241.006 33.0025Z" fill="#95C11F"/>
<path d="M253.955 18.4274C253.724 18.0647 253.821 17.6131 254.209 17.2492C253.828 17.0553 253.175 17.1937 252.746 17.6529C252.418 18.0033 252.215 18.8071 252.632 19.4011C252.964 19.8731 253.531 20.1588 254.186 19.9858C254.842 19.8129 255.263 19.1955 255.224 18.7031C254.641 18.9438 254.227 18.8538 253.955 18.4274Z" fill="#29235C"/>
<path d="M250.987 14.6125C251.746 14.3374 252.522 14.2492 253.274 14.3163C252.989 14.1207 252.707 13.9174 252.454 13.6867C251.929 13.2065 251.544 12.5926 250.991 12.1387C250.626 11.8397 250.049 11.5931 249.747 12.1177C249.528 12.4991 249.743 13.0605 249.912 13.4191C250.081 13.7772 250.292 14.1014 250.572 14.3812C250.39 14.2918 250.205 14.217 250.02 14.1738C249.691 14.0961 249.299 13.9624 248.995 14.1616C248.246 14.6546 248.774 15.2673 249.291 15.5979C249.808 15.1686 250.351 14.8549 250.904 14.644C250.932 14.6329 250.959 14.6224 250.987 14.6125Z" fill="#00983A"/>
<path d="M249.52 32.2922C249.445 32.4272 249.375 32.5621 249.306 32.6976C249.291 32.7286 249.276 32.7601 249.261 32.7911C249.207 32.8997 249.154 33.0078 249.104 33.1164C249.091 33.1421 249.08 33.1684 249.068 33.1947C249.015 33.3115 248.963 33.4278 248.914 33.5446C248.907 33.5615 248.9 33.5785 248.893 33.5948C248.84 33.7216 248.789 33.8483 248.74 33.9751C248.737 33.9844 248.733 33.9944 248.729 34.0037C248.68 34.1357 248.632 34.2672 248.587 34.3986C248.584 34.4079 248.58 34.4167 248.577 34.426C248.534 34.5534 248.493 34.6807 248.455 34.8075C248.449 34.8268 248.443 34.846 248.437 34.8653C248.404 34.9757 248.373 35.0861 248.344 35.1965C248.332 35.2397 248.321 35.283 248.31 35.3262C248.289 35.4068 248.27 35.4874 248.251 35.568C248.232 35.6492 248.214 35.7304 248.197 35.8116C248.189 35.8501 248.181 35.8881 248.174 35.9261C247.987 36.8753 247.925 37.8473 248.018 38.8193C249.037 38.5459 250.017 38.1522 250.908 37.6124C251.976 36.9664 252.906 36.1083 253.632 35.0919C255.377 32.648 255.415 29.9563 255.654 27.0988C255.657 27.0649 255.66 27.031 255.663 26.9971C253.463 27.4855 251.09 29.4277 249.52 32.2922Z" fill="#E30613"/>
<path d="M251.669 15.0769C251.458 14.9267 251.227 14.7626 250.987 14.6125C250.959 14.6224 250.932 14.6329 250.905 14.6434C251.156 14.7988 251.424 14.9022 251.669 15.0769Z" fill="white"/>
<path d="M248.311 35.3268C248.322 35.2836 248.333 35.2403 248.345 35.1971C248.333 35.2409 248.322 35.2841 248.311 35.3268Z" fill="white"/>
<path d="M248.198 35.8122C248.215 35.731 248.233 35.6498 248.252 35.5686C248.233 35.6504 248.215 35.7316 248.198 35.8122Z" fill="white"/>
<path d="M249.26 32.7911C249.275 32.7601 249.29 32.7286 249.306 32.6976C249.291 32.7286 249.276 32.7601 249.26 32.7911Z" fill="white"/>
<path d="M249.068 33.1947C249.08 33.1684 249.091 33.1421 249.104 33.1164C249.091 33.1427 249.08 33.1684 249.068 33.1947Z" fill="white"/>
<path d="M248.73 34.0043C248.733 33.995 248.737 33.985 248.741 33.9757C248.737 33.985 248.733 33.9944 248.73 34.0043Z" fill="white"/>
<path d="M248.578 34.4266C248.581 34.4173 248.584 34.4085 248.587 34.3992C248.584 34.4085 248.581 34.4173 248.578 34.4266Z" fill="white"/>
<path d="M248.893 33.5954C248.9 33.5785 248.907 33.5616 248.914 33.5452C248.906 33.5616 248.9 33.5785 248.893 33.5954Z" fill="white"/>
<path d="M248.438 34.8665C248.444 34.8472 248.45 34.8279 248.456 34.8086C248.449 34.8273 248.444 34.8466 248.438 34.8665Z" fill="white"/>
<path d="M248.175 35.9272C247.971 36.9465 247.918 37.929 248.018 38.821H248.019C247.925 37.8484 247.988 36.8765 248.175 35.9272Z" fill="white"/>
<path d="M257.888 17.2294C256.987 15.6715 255.211 14.4892 253.274 14.3163C252.522 14.2492 251.746 14.3379 250.987 14.6125C250.948 14.6271 250.935 14.6358 250.905 14.6434C250.351 14.8543 249.809 15.168 249.292 15.5973C248.524 16.2352 247.813 17.1277 247.215 18.3252C246.947 18.862 246.702 19.4613 246.483 20.126C246.483 20.126 246.483 20.126 246.483 20.126L242.96 15.0687C242.905 14.9898 242.835 14.9285 242.758 14.8829C242.754 14.8777 242.75 14.8718 242.747 14.8666C242.716 14.8216 242.676 14.8111 242.63 14.8263C242.443 14.7649 242.231 14.7871 242.057 14.9086C240.868 15.7393 240.567 17.3766 241.372 18.5764C241.382 18.5904 241.389 18.605 241.399 18.619L245.182 24.0321C245.426 24.3645 245.663 24.7009 245.889 25.0438C246.438 25.8733 247.109 26.7746 247.309 27.7717C247.517 28.8067 247.133 29.9429 246.619 30.8301C245.771 32.2951 244.06 34.4979 242.28 34.8343C241.01 35.0744 239.877 33.5218 239.154 32.6602C238.566 31.9587 233.913 25.3224 233.77 25.2774C233.489 25.1887 233.206 25.4042 233.009 25.6238C232.491 26.1986 232.118 26.9627 232.22 27.7296C232.293 28.2892 232.606 28.7845 232.912 29.2583C233.897 30.7817 234.9 32.2945 236.003 33.7344C236.995 35.03 238.076 36.273 239.366 37.2719C240.657 38.2702 242.173 39.0184 243.792 39.2252C245.203 39.4057 246.636 39.172 248.022 38.8519C248.021 38.8414 248.021 38.8315 248.02 38.821H248.02C247.92 37.929 247.972 36.9465 248.176 35.9272C248.184 35.8887 248.192 35.8507 248.199 35.8127C248.216 35.7315 248.234 35.6504 248.253 35.5692C248.272 35.4885 248.292 35.4079 248.312 35.3273C248.323 35.2841 248.334 35.2409 248.346 35.1977C248.376 35.0867 248.407 34.9763 248.44 34.8665C248.445 34.8472 248.451 34.8279 248.457 34.8086C248.496 34.6807 248.536 34.5534 248.58 34.4272C248.583 34.4178 248.586 34.4091 248.589 34.3997C248.634 34.2671 248.682 34.1357 248.732 34.0049C248.735 33.9955 248.739 33.9856 248.743 33.9762C248.791 33.8489 248.842 33.7222 248.895 33.596C248.902 33.579 248.909 33.5621 248.916 33.5457C248.966 33.4283 249.017 33.3115 249.07 33.1959C249.082 33.1696 249.094 33.1439 249.106 33.1176C249.157 33.0084 249.209 32.8997 249.263 32.7922C249.278 32.7613 249.293 32.7297 249.309 32.6988C249.378 32.5627 249.449 32.4271 249.522 32.2934C251.092 29.4288 253.465 27.4866 255.666 27C255.822 25.2249 256.18 23.4316 257.587 22.2067C258.02 21.8294 258.514 21.5285 259.029 21.275L259.425 18.9987C258.771 18.4222 258.214 17.7942 257.888 17.2294ZM254.187 19.9853C253.531 20.1582 252.965 19.8731 252.633 19.4006C252.215 18.8065 252.419 18.0027 252.746 17.6523C253.176 17.1932 253.828 17.0553 254.209 17.2486C253.822 17.6126 253.724 18.0641 253.955 18.4268C254.228 18.8532 254.642 18.9432 255.224 18.7019C255.264 19.1949 254.842 19.8124 254.187 19.9853Z" fill="#00983A"/>
<path d="M260.197 20.7826C260.403 20.7096 261.249 20.3071 261.433 20.4029C260.755 20.0507 260.045 19.5484 259.422 18.9975L259.026 21.2739C259.069 21.2528 259.111 21.2295 259.155 21.2084C259.494 21.0472 259.843 20.9082 260.197 20.7826Z" fill="#FFDE00"/>
<path d="M249.99 19.032C249.267 18.9093 248.564 19.119 248.032 19.5466C247.577 19.9123 247.248 20.4362 247.143 21.0542L247.321 21.285L249.689 24.3621L250.481 19.7254C250.538 19.3977 250.317 19.0875 249.99 19.032Z" fill="#95C11F"/>
</svg>
